# xmcd
#
# Track frame offsets: 
#        150
#        16286
#        28156
#        45426
#        61643
#        76591
#        95076
#        114371
#        128239
#        140919
#        155759
#        171463
#        183846
#        202655
#        214471
#        234387
#        245744
#        265471
#        280878
#        296069
#        315931
#
# Disc length: 4366 seconds
#
# Revision: 2
# Processed by: cddbd v1.4PL0 Copyright (c) Steve Scherf et al.
# Submitted via: ExactAudioCopy v0.95a3
#
DISCID=2f110c15
DTITLE=Various Artist - Boot Scootin' Country Disc 5
DYEAR=1995
DGENRE=Country
TTITLE0=Carlene Carter - I Love You 'Cause I Want To
TTITLE1=Alan Jackson - Little Bitty
TTITLE2=Garth Brooks - Friends In Low Places
TTITLE3=Tracy Lawrence - I See It Now
TTITLE4=Waylon Jennings - Luckenbach, Texas (Back To The Basics Of Lov
TTITLE4=e)
TTITLE5=Shania Twain - Any Man Of Mine
TTITLE6=Restless Heart - I'll Still Be Loving You
TTITLE7=Perfect Stranger - Fire When Ready
TTITLE8=Clint Black - Killin' Time
TTITLE9=Reba McEntire - Take It Back
TTITLE10=John Berry - Your Love Amazes Me [Edit]
TTITLE11=Patsy Cline - Crazy
TTITLE12=Lonestar - No News [Dance Mix]
TTITLE13=Marty Stuart - Hillbilly Rock
TTITLE14=Gibson Miller Band - Texas Tattoo [Extended Version]
TTITLE15=Mel McDeaniel - Stand Up
TTITLE16=Pam Tillis - Cleopatra, Qeen Of Denial [Club Mix]
TTITLE17=Billy Ray Cyrus - Achy Breaky Heart
TTITLE18=Sammy Kershaw - Third Rate Romance
TTITLE19=Mary-Chapin Carpenter - Down At The Twist And Shout [Dance Mi
TTITLE19=x]
TTITLE20=George Strait - The Fireman
EXTD=
EXTT0=
EXTT1=
EXTT2=
EXTT3=
EXTT4=
EXTT5=
EXTT6=
EXTT7=
EXTT8=
EXTT9=
EXTT10=
EXTT11=
EXTT12=
EXTT13=
EXTT14=
EXTT15=
EXTT16=
EXTT17=
EXTT18=
EXTT19=
EXTT20=
PLAYORDER=
